<svg width="71" height="71" viewBox="0 0 71 71" fill="none" xmlns="http://www.w3.org/2000/svg">
<path d="M35.5 5.91669C19.17 5.91669 5.91666 19.17 5.91666 35.5C5.91666 51.83 19.17 65.0834 35.5 65.0834C51.83 65.0834 65.0833 51.83 65.0833 35.5C65.0833 19.17 51.83 5.91669 35.5 5.91669ZM21.7437 54.7292C25.6192 51.9484 30.3525 50.2917 35.5 50.2917C40.6475 50.2917 45.3808 51.9484 49.2562 54.7292C45.3808 57.51 40.6475 59.1667 35.5 59.1667C30.3525 59.1667 25.6192 57.51 21.7437 54.7292ZM53.6642 50.6467C48.6646 46.7417 42.3633 44.375 35.5 44.375C28.6367 44.375 22.3354 46.7417 17.3358 50.6467C13.9042 46.5346 11.8333 41.2688 11.8333 35.5C11.8333 22.4242 22.4242 11.8334 35.5 11.8334C48.5758 11.8334 59.1667 22.4242 59.1667 35.5C59.1667 41.2688 57.0958 46.5346 53.6642 50.6467Z" fill="black"/>
<path d="M35.5 17.75C29.7904 17.75 25.1458 22.3946 25.1458 28.1042C25.1458 33.8138 29.7904 38.4584 35.5 38.4584C41.2096 38.4584 45.8542 33.8138 45.8542 28.1042C45.8542 22.3946 41.2096 17.75 35.5 17.75ZM35.5 32.5417C33.0446 32.5417 31.0625 30.5596 31.0625 28.1042C31.0625 25.6488 33.0446 23.6667 35.5 23.6667C37.9554 23.6667 39.9375 25.6488 39.9375 28.1042C39.9375 30.5596 37.9554 32.5417 35.5 32.5417Z" fill="black"/>
</svg>
