<svg width="61" height="61" viewBox="0 0 61 61" fill="none" xmlns="http://www.w3.org/2000/svg">
<path d="M45.75 21.6042H43.2083V16.5208C43.2083 9.50583 37.515 3.8125 30.5 3.8125C23.485 3.8125 17.7917 9.50583 17.7917 16.5208V21.6042H15.25C12.4542 21.6042 10.1667 23.8917 10.1667 26.6875V52.1042C10.1667 54.9 12.4542 57.1875 15.25 57.1875H45.75C48.5458 57.1875 50.8333 54.9 50.8333 52.1042V26.6875C50.8333 23.8917 48.5458 21.6042 45.75 21.6042ZM22.875 16.5208C22.875 12.3017 26.2808 8.89583 30.5 8.89583C34.7192 8.89583 38.125 12.3017 38.125 16.5208V21.6042H22.875V16.5208ZM45.75 52.1042H15.25V26.6875H45.75V52.1042ZM30.5 44.4792C33.2958 44.4792 35.5833 42.1917 35.5833 39.3958C35.5833 36.6 33.2958 34.3125 30.5 34.3125C27.7042 34.3125 25.4167 36.6 25.4167 39.3958C25.4167 42.1917 27.7042 44.4792 30.5 44.4792Z" fill="black"/>
</svg>
